HIERARCHY
ROOT Hips
{
 OFFSET 0.000000 0.000000 0.000000
 CHANNELS 6 Xposition Yposition Zposition Yrotation Xrotation Zrotation
 JOINT Chest
 {
  OFFSET 0.000000 9.585900 0.002600
  CHANNELS 3 Yrotation Xrotation Zrotation
  JOINT Chest2
  {
   OFFSET 0.000000 9.601200 -0.005300
   CHANNELS 3 Yrotation Xrotation Zrotation
   JOINT Chest3
   {
    OFFSET 0.000000 9.561800 0.000000
    CHANNELS 3 Yrotation Xrotation Zrotation
    JOINT Chest4
    {
     OFFSET 0.000000 9.552100 0.000000
     CHANNELS 3 Yrotation Xrotation Zrotation
     JOINT Neck
     {
      OFFSET 0.000000 14.453000 0.000000
      CHANNELS 3 Yrotation Xrotation Zrotation
      JOINT Head
      {
       OFFSET 0.000000 8.936500 -0.011300
       CHANNELS 3 Yrotation Xrotation Zrotation
       End Site
       {
        OFFSET 0.000000 17.073600 -0.006000
       }
      }
     }
     JOINT RightCollar
     {
      OFFSET -2.921100 9.558500 0.000000
      CHANNELS 3 Yrotation Xrotation Zrotation
      JOINT RightShoulder
      {
       OFFSET -13.519700 0.000000 0.000000
       CHANNELS 3 Yrotation Xrotation Zrotation
       JOINT RightElbow
       {
        OFFSET 0.000000 -29.696600 0.000000
        CHANNELS 3 Yrotation Xrotation Zrotation
        JOINT RightWrist
        {
         OFFSET 0.000000 -24.004700 0.000000
         CHANNELS 3 Yrotation Xrotation Zrotation
         End Site
         {
          OFFSET 0.000000 -17.728500 0.000000
         }
        }
       }
      }
     }
     JOINT LeftCollar
     {
      OFFSET 2.921100 9.558500 0.000000
      CHANNELS 3 Yrotation Xrotation Zrotation
      JOINT LeftShoulder
      {
       OFFSET 13.519700 0.000000 0.000000
       CHANNELS 3 Yrotation Xrotation Zrotation
       JOINT LeftElbow
       {
        OFFSET 0.000000 -29.696600 0.000000
        CHANNELS 3 Yrotation Xrotation Zrotation
        JOINT LeftWrist
        {
         OFFSET 0.000000 -24.004700 0.000000
         CHANNELS 3 Yrotation Xrotation Zrotation
         End Site
         {
          OFFSET 0.000000 -17.728500 0.000000
         }
        }
       }
      }
     }
    }
   }
  }
 }
 JOINT RightHip
 {
  OFFSET -7.771700 -0.012900 -0.001300
  CHANNELS 3 Yrotation Xrotation Zrotation
  JOINT RightKnee
  {
   OFFSET 0.000000 -40.869800 0.001200
   CHANNELS 3 Yrotation Xrotation Zrotation
   JOINT RightAnkle
   {
    OFFSET 0.000000 -39.717900 0.002100
    CHANNELS 3 Yrotation Xrotation Zrotation
    JOINT RightToe
    {
     OFFSET 0.000000 -4.965400 11.033500
     CHANNELS 3 Yrotation Xrotation Zrotation
     End Site
     {
      OFFSET 0.000000 -1.423100 5.872300
     }
    }
   }
  }
 }
 JOINT LeftHip
 {
  OFFSET 7.771700 -0.012900 -0.001300
  CHANNELS 3 Yrotation Xrotation Zrotation
  JOINT LeftKnee
  {
   OFFSET 0.000000 -40.869800 0.001200
   CHANNELS 3 Yrotation Xrotation Zrotation
   JOINT LeftAnkle
   {
    OFFSET 0.000000 -39.717900 0.002100
    CHANNELS 3 Yrotation Xrotation Zrotation
    JOINT LeftToe
    {
     OFFSET 0.000000 -4.965400 11.033500
     CHANNELS 3 Yrotation Xrotation Zrotation
     End Site
     {
      OFFSET 0.000000 -1.423100 5.872300
     }
    }
   }
  }
 }
}
MOTION
Frames: 11
Frame Time: 0.008333
-16.452624 55.200864 -31.696950 -179.037381 -16.705886 -1.401353 0.322817 15.893442 0.175821 0.035917 1.541947 0.045765 0.063853 2.602911 0.063467 0.380304 14.167911 0.331926 0.807020 13.756033 -0.525835 0.952884 -11.270583 -0.753107 0.299096 0.283105 2.882765 1.840633 -5.555087 -7.893046 -86.102320 -65.723821 115.079568 -13.139972 -3.741025 0.768308 -6.658637 -1.737129 1.776796 3.914417 -8.941308 8.546071 70.245905 -60.665081 -108.668170 4.472303 -10.461334 5.284564 0.492439 -58.376693 11.389823 -129.422421 88.907023 -133.921114 -10.873455 -23.169804 12.596138 0.028503 -0.078308 -0.097959 9.966743 -54.962650 -6.460278 113.700079 77.356548 111.539902 -6.915427 -23.416977 0.918747 0.011504 0.199101 0.008934
-16.453263 55.201931 -31.696462 -179.034784 -16.726040 -1.389633 0.315038 15.896918 0.177454 0.037043 1.554832 0.034697 0.065301 2.594968 0.079295 0.371487 14.169397 0.338086 0.775534 13.779906 -0.701792 0.955511 -11.246650 -0.928823 0.296373 0.294483 2.866214 1.824167 -5.550297 -7.876222 -86.106640 -65.720871 115.094419 -13.142373 -3.742515 0.766045 -6.654897 -1.730127 1.799899 3.912395 -8.945502 8.516200 70.182693 -60.685555 -108.632339 4.479825 -10.488277 5.302116 0.490320 -58.362392 11.383718 -129.483673 88.899914 -133.987195 -10.832270 -23.131436 12.593248 0.025919 -0.090225 -0.071192 9.973958 -54.937565 -6.468869 113.679277 77.361730 111.508547 -6.913858 -23.414812 0.927482 0.005072 0.201689 0.006946
-16.454906 55.203876 -31.697577 -179.032575 -16.757651 -1.376105 0.312394 15.904781 0.198548 0.037525 1.565326 0.019374 0.060594 2.599612 0.078959 0.371451 14.169566 0.349424 0.729067 13.810088 -0.885436 0.951802 -11.216986 -1.106983 0.265811 0.304068 2.885827 1.834124 -5.541364 -7.899541 -86.102301 -65.716355 115.099890 -13.120723 -3.731196 0.771932 -6.659548 -1.724351 1.781698 3.903272 -8.952801 8.522589 70.150550 -60.682432 -108.605626 4.465263 -10.483086 5.292183 0.492447 -58.329273 11.374900 -129.301867 88.895692 -133.805856 -10.810920 -23.118358 12.584625 0.023122 -0.091121 -0.060686 9.983269 -54.899751 -6.481456 113.666467 77.365281 111.489126 -6.906424 -23.416005 0.926869 0.004231 0.202595 0.008623
-16.456420 55.205284 -31.695716 -179.037387 -16.771441 -1.364605 0.312511 15.910829 0.202773 0.037476 1.562816 0.021941 0.060002 2.604722 0.078738 0.369055 14.167106 0.358264 0.680632 13.844559 -1.069150 0.942667 -11.186458 -1.285929 0.256334 0.314763 2.881404 1.829682 -5.533998 -7.898813 -86.095391 -65.710409 115.100566 -13.120711 -3.732790 0.764988 -6.660275 -1.719091 1.765019 3.895152 -8.957210 8.524894 70.131012 -60.689168 -108.593017 4.475154 -10.499760 5.302877 0.493277 -58.314391 11.369311 -128.777939 88.890696 -133.287956 -10.745667 -23.110545 12.570257 -0.022016 -0.097937 -0.063556 10.000008 -54.881314 -6.496244 113.645301 77.369026 111.463969 -6.902716 -23.417529 0.928938 -0.003646 0.206129 0.006898
-16.457850 55.206982 -31.693838 -179.039968 -16.784787 -1.356820 0.311277 15.917583 0.210462 0.038102 1.563788 0.021856 0.058570 2.606899 0.081296 0.369802 14.170161 0.364690 0.624533 13.872976 -1.251098 0.929296 -11.156921 -1.466205 0.243432 0.318313 2.877809 1.832077 -5.527158 -7.904371 -86.087364 -65.695200 115.095283 -13.157158 -3.732702 0.740247 -6.664419 -1.719974 1.778761 3.898373 -8.957173 8.491164 70.121473 -60.710063 -108.598469 4.470168 -10.504737 5.302256 0.494252 -58.298610 11.362398 -127.816480 88.876396 -132.328565 -10.667991 -23.109544 12.552809 0.021608 -0.093083 -0.057244 10.010136 -54.864180 -6.505719 113.616576 77.371944 111.432813 -6.900852 -23.415859 0.931720 -0.005167 0.208256 0.005381
-16.458848 55.209001 -31.692227 -179.044725 -16.798698 -1.352369 0.313117 15.925427 0.223411 0.035179 1.559330 0.039184 0.059568 2.613579 0.066143 0.365851 14.175504 0.391693 0.562932 13.897410 -1.456392 0.912173 -11.127640 -1.646553 0.234104 0.319725 2.851872 1.841638 -5.525218 -7.920954 -86.074663 -65.676022 115.081185 -13.150388 -3.727663 0.739429 -6.661798 -1.725598 1.746450 3.890121 -8.957656 8.491280 70.124915 -60.720468 -108.611530 4.447568 -10.520160 5.307387 0.494520 -58.281443 11.359765 -127.633115 88.881215 -132.149919 -10.611393 -23.110107 12.555510 0.020585 -0.072872 -0.049556 10.015145 -54.847378 -6.505739 113.597107 77.374201 111.411856 -6.904123 -23.415769 0.932960 -0.000508 0.208812 0.005011
-16.459335 55.211034 -31.690076 -179.050121 -16.807336 -1.350962 0.317183 15.931199 0.231754 0.033458 1.557538 0.047313 0.059161 2.614037 0.067228 0.364429 14.176317 0.404599 0.500197 13.922831 -1.644694 0.890702 -11.099349 -1.822819 0.224767 0.325308 2.841633 1.839749 -5.510947 -7.916195 -86.090941 -65.693933 115.109811 -13.158973 -3.725162 0.735013 -6.660386 -1.721244 1.740128 3.877419 -8.963919 8.476087 70.121785 -60.726569 -108.608848 4.429896 -10.534879 5.308493 0.484807 -58.267190 11.358136 -127.780807 88.895796 -132.313881 -10.501231 -23.120559 12.544397 0.023800 -0.066406 -0.052032 10.017546 -54.837173 -6.502209 113.583320 77.375293 111.394946 -6.902542 -23.417757 0.932878 -0.004045 0.210834 0.005876
-16.460467 55.212851 -31.686969 -179.050823 -16.807383 -1.346401 0.313772 15.928943 0.234484 0.032893 1.557036 0.053909 0.059136 2.614092 0.068136 0.364676 14.176414 0.409355 0.436901 13.944043 -1.820105 0.865220 -11.074968 -1.992998 0.216512 0.327617 2.840353 1.839417 -5.491667 -7.912222 -86.094440 -65.682970 115.109380 -13.153621 -3.715041 0.737512 -6.663241 -1.714895 1.749513 3.848385 -8.969835 8.454907 70.134948 -60.728694 -108.600258 4.413419 -10.544898 5.314215 0.469790 -58.261208 11.350336 -128.169034 88.911769 -132.728963 -10.374954 -23.132323 12.535789 0.028461 -0.062580 -0.054953 10.024443 -54.835856 -6.510710 113.548036 77.376148 111.356786 -6.902185 -23.410749 0.932737 -0.004623 0.207386 0.004761
-16.461482 55.214998 -31.684941 -179.058438 -16.811139 -1.339700 0.312093 15.928956 0.254365 0.034942 1.559817 0.040700 0.059107 2.614408 0.068865 0.364926 14.177184 0.413257 0.373679 13.958928 -1.989523 0.838325 -11.057003 -2.157191 0.213596 0.326411 2.830442 1.830277 -5.470006 -7.896037 -86.094214 -65.680265 115.118256 -13.149402 -3.714672 0.721939 -6.672707 -1.710528 1.755754 3.843669 -8.969228 8.433867 70.147899 -60.730364 -108.610601 4.408463 -10.551923 5.316182 0.458749 -58.253095 11.357354 -127.974909 88.921216 -132.543995 -10.370573 -23.130566 12.540987 0.028794 -0.055000 -0.050357 10.037381 -54.830996 -6.517714 113.536837 77.375782 111.342336 -6.902743 -23.405569 0.933553 -0.008690 0.202765 0.004656
-16.463104 55.217209 -31.683700 -179.071004 -16.816136 -1.327004 0.314631 15.932862 0.255504 0.034806 1.560250 0.041013 0.058860 2.615100 0.069378 0.363980 14.178888 0.416001 0.313049 13.967063 -2.150837 0.812320 -11.045916 -2.313838 0.213883 0.322916 2.820409 1.818274 -5.449857 -7.878218 -86.047194 -65.657674 115.072272 -13.122554 -3.716308 0.725035 -6.682899 -1.708218 1.772550 3.843775 -8.966450 8.402527 70.167841 -60.730720 -108.619814 4.421503 -10.566332 5.302962 0.456319 -58.245906 11.374739 -127.149017 88.909713 -131.710802 -10.496205 -23.114299 12.564116 0.023068 -0.044419 -0.040533 10.057543 -54.819511 -6.530045 113.509116 77.377370 111.311500 -6.905571 -23.409040 0.932051 -0.009527 0.205473 0.005674
-16.465940 55.219141 -31.682509 -179.081617 -16.816997 -1.306778 0.312214 15.933399 0.247356 0.034305 1.560600 0.041336 0.058021 2.615628 0.069769 0.364389 14.179814 0.414367 0.253136 13.968690 -2.298618 0.788614 -11.041901 -2.462549 0.207832 0.316263 2.824721 1.797565 -5.416715 -7.858362 -86.065194 -65.683342 115.120466 -13.133556 -3.711970 0.706776 -6.683063 -1.708618 1.773384 3.836099 -8.964137 8.389470 70.175828 -60.731156 -108.624005 4.425833 -10.575085 5.299386 0.467122 -58.245201 11.384861 -126.077579 88.895567 -130.619425 -10.704225 -23.089434 12.595621 0.038224 -0.031283 -0.024604 10.072076 -54.813177 -6.550246 113.469312 77.375675 111.264558 -6.906426 -23.402862 0.924438 -0.007378 0.202421 0.007166
